<?xml version="1.0" standalone="no"?>
<!DOCTYPE svg PUBLIC "-//W3C//DTD SVG 20010904//EN"
 "http://www.w3.org/TR/2001/REC-SVG-20010904/DTD/svg10.dtd">
<svg version="1.0" xmlns="http://www.w3.org/2000/svg"
 width="512.000000pt" height="512.000000pt" viewBox="0 0 512.000000 512.000000"
 preserveAspectRatio="xMidYMid meet">

<g transform="translate(0.000000,512.000000) scale(0.100000,-0.100000)" fill="#f6eee6" stroke="none">
<path d="M1416 4689 c-45 -35 -56 -69 -56 -174 l0 -95 -167 0 c-190 0 -237 -9
-352 -66 -97 -48 -203 -152 -253 -249 -73 -140 -68 -26 -68 -1690 0 -1664 -5
-1550 68 -1690 48 -93 154 -199 247 -247 140 -73 22 -68 1727 -68 1702 0 1583
-5 1722 67 94 49 200 155 248 248 73 140 68 26 68 1690 0 1664 5 1550 -68
1690 -48 93 -154 199 -248 248 -105 54 -172 67 -361 67 l-163 0 0 95 c0 105
-11 139 -56 174 -40 31 -113 29 -153 -5 -38 -32 -51 -77 -51 -181 l0 -83 -940
0 -940 0 0 83 c0 104 -13 149 -51 181 -40 34 -113 36 -153 5z m-56 -607 c0
-104 18 -146 74 -175 43 -23 90 -17 131 15 40 31 55 77 55 168 l0 80 940 0
940 0 0 -72 c0 -95 14 -141 51 -172 42 -36 90 -43 135 -19 56 29 74 71 74 176
l0 89 163 -4 c150 -3 166 -5 218 -30 79 -36 133 -89 171 -166 l33 -66 3 -233
4 -233 -1792 0 -1792 0 4 233 3 233 33 66 c46 95 132 164 229 187 21 5 102 9
181 10 l142 1 0 -88z m2985 -2027 l0 -1130 -26 -56 c-37 -79 -90 -133 -167
-171 l-67 -33 -1525 0 -1525 0 -67 33 c-77 38 -130 92 -167 171 l-26 56 -3
1120 c-1 616 0 1125 2 1132 4 11 348 13 1788 11 l1783 -3 0 -1130z"/>
<path d="M1394 2646 c-137 -64 -191 -232 -117 -367 107 -198 397 -178 478 34
21 56 17 154 -9 208 -61 127 -223 185 -352 125z"/>
<path d="M2466 2655 c-99 -35 -172 -142 -170 -249 1 -104 54 -189 148 -239 58
-30 174 -31 231 0 54 28 119 100 136 149 46 136 -28 294 -160 339 -55 18 -133
19 -185 0z"/>
<path d="M3505 2647 c-61 -29 -127 -101 -143 -155 -75 -250 199 -451 408 -298
153 111 139 345 -27 443 -66 39 -169 43 -238 10z"/>
<path d="M1392 1774 c-212 -106 -193 -416 31 -490 178 -59 358 80 345 268 -2
35 -12 79 -22 99 -62 129 -227 186 -354 123z"/>
<path d="M2466 1785 c-99 -35 -172 -142 -170 -249 1 -104 54 -189 148 -239 58
-30 174 -31 231 0 54 28 119 100 136 149 35 105 -3 235 -89 301 -70 53 -172
68 -256 38z"/>
<path d="M3505 1777 c-61 -29 -127 -101 -143 -155 -39 -128 16 -263 133 -325
59 -31 173 -31 235 1 61 32 88 58 117 115 66 130 22 280 -104 354 -66 39 -169
43 -238 10z"/>
</g>
</svg>
